<?xml version="1.0" encoding="UTF-8" standalone="no"?>
<!-- Created with Inkscape (http://www.inkscape.org/) -->

<svg
   xmlns:dc="http://purl.org/dc/elements/1.1/"
   xmlns:cc="http://creativecommons.org/ns#"
   xmlns:rdf="http://www.w3.org/1999/02/22-rdf-syntax-ns#"
   xmlns:svg="http://www.w3.org/2000/svg"
   xmlns="http://www.w3.org/2000/svg"
   xmlns:sodipodi="http://sodipodi.sourceforge.net/DTD/sodipodi-0.dtd"
   xmlns:inkscape="http://www.inkscape.org/namespaces/inkscape"
   version="1.1"
   id="svg815"
   width="236"
   height="179"
   viewBox="0 0 236 179"
   sodipodi:docname="copied panda samurai.svg"
   inkscape:version="0.92.2 (5c3e80d, 2017-08-06)">
  <metadata
     id="metadata821">
    <rdf:RDF>
      <cc:Work
         rdf:about="">
        <dc:format>image/svg+xml</dc:format>
        <dc:type
           rdf:resource="http://purl.org/dc/dcmitype/StillImage" />
        <dc:title></dc:title>
      </cc:Work>
    </rdf:RDF>
  </metadata>
  <defs
     id="defs819" />
  <sodipodi:namedview
     pagecolor="#ffffff"
     bordercolor="#666666"
     borderopacity="1"
     objecttolerance="10"
     gridtolerance="10"
     guidetolerance="10"
     inkscape:pageopacity="0"
     inkscape:pageshadow="2"
     inkscape:window-width="1680"
     inkscape:window-height="987"
     id="namedview817"
     showgrid="false"
     inkscape:zoom="2.8284271"
     inkscape:cx="65.660434"
     inkscape:cy="115.02252"
     inkscape:window-x="-8"
     inkscape:window-y="-8"
     inkscape:window-maximized="1"
     inkscape:current-layer="svg815" />
  <g
     id="g5536"
     transform="translate(-3.7499999,-4.5)"
     style="fill:#000000">
    <path
       d="m 185.13086,25.771484 -1.68359,3.451172 c -2.11128,4.326188 -2.50474,4.626636 -5.92383,4.513672 -3.68625,-0.121791 -4.3616,0.07588 -6.1875,1.802734 -0.93179,0.881257 -2.51008,1.925889 -3.75,2.484376 -1.17736,0.53031 -2.39553,1.190216 -2.70703,1.466796 -0.3115,0.276579 -1.10853,1.640269 -1.77149,3.029297 -0.9952,2.085152 -1.48094,2.722619 -2.7832,3.658203 -1.95027,1.401129 -2.5981,2.77445 -2.36719,5.011719 0.0904,0.875669 0.41354,2.060488 0.71875,2.632813 1.08146,2.027888 0.48817,5.821441 -2.22461,14.21289 l -1.09961,3.398438 -0.89648,-0.53125 c -0.49353,-0.291537 -2.67997,-2.190183 -4.85742,-4.220703 -6.92767,-6.460182 -12.51565,-10.119067 -19.27735,-12.619141 -4.2798,-1.582413 -5.63863,-2.389978 -6.60937,-3.927734 -0.80756,-1.279248 -3.07919,-2.676448 -4.89844,-3.013672 -2.11314,-0.391702 -4.65063,1.013764 -6.11719,3.386718 -0.69216,1.119926 -3.15669,2.553977 -5.89453,3.431641 -5.78806,1.855472 -12.856737,6.526142 -20.517577,13.556641 -1.838118,1.686875 -3.400656,3.007587 -3.472656,2.935547 -0.43068,-0.430682 -2.691051,-9.774555 -2.837891,-11.730469 -0.15284,-2.035877 -0.0625,-2.684867 0.675782,-4.857422 1.276206,-3.755539 0.818194,-5.170318 -2.322266,-7.185547 -1.54153,-0.989194 -3.089844,-3.06488 -3.089844,-4.140625 0,-0.97947 -0.872566,-2.228464 -1.910156,-2.734375 -0.56633,-0.276128 -1.829731,-0.87008 -2.806641,-1.320312 -0.97691,-0.450231 -2.36859,-1.382169 -3.09375,-2.070313 -1.7581,-1.668348 -2.642645,-1.994365 -6.109375,-2.255859 -2.89074,-0.218048 -4.405657,-0.685537 -4.748047,-1.466797 -0.096,-0.219054 -0.747565,-1.720924 -1.447265,-3.337891 l -1.271485,-2.941406 0.1875,4.642578 c 0.67394,16.615458 5.7442,30.502464 16.38086,44.873047 l 3.205078,4.332031 -1.96875,3.869141 c -2.43995,4.791263 -3.226563,7.037267 -3.226563,9.216797 0,3.45347 -2.631483,13.021951 -5.720703,20.800781 -1.78906,4.50495 -1.975227,5.68794 -1.148437,7.30859 1.34808,2.64245 6.168066,5.8588 8.441406,5.63282 1.29082,-0.12831 2.122806,-1.58638 4.566406,-8.00977 2.26515,-5.95431 2.771259,-6.97679 3.230469,-6.51758 0.24969,0.24969 0.187524,1.59213 -0.228516,4.97461 -1.01433,8.24662 -0.01371,13.32429 3.408203,17.29102 2.749443,3.18719 10.459492,8.60908 17.275391,12.14843 7.433707,3.86019 9.752537,4.60724 15.203127,4.9004 6.97955,0.37539 12.8298,-0.0682 16.35742,-1.24024 2.77931,-0.9234 10.06322,-4.5986 13.88867,-7.00781 5.11377,-3.22056 6.95035,-4.63225 10.17188,-7.81836 5.08526,-5.02934 5.81711,-7.42347 5.25781,-17.20313 -0.34106,-5.96358 -0.19479,-7.80016 0.51367,-6.44336 0.16974,0.32507 1.10598,2.68127 2.08008,5.23438 3.22369,8.44923 4.07087,9.75383 6.31641,9.74023 3.42675,-0.0208 8.08203,-4.50353 8.08203,-7.7832 0,-0.60499 -0.49835,-2.17164 -1.10938,-3.49414 -2.42601,-5.25078 -6.15224,-17.745004 -6.61328,-22.171874 -0.25491,-2.44762 -0.46976,-3.050235 -2.63086,-7.365235 -1.32655,-2.648684 -2.25534,-4.860494 -2.12891,-5.070312 0.12338,-0.204735 1.67893,-2.176804 3.45899,-4.38086 6.84792,-8.479004 11.00959,-16.155297 14.24805,-26.285156 2.19758,-6.874015 3.32297,-13.246033 3.61132,-20.458984 z m -8.38281,10.058594 c 2.37137,0 5.5625,0.670995 5.5625,1.169922 0,1.523094 -1.84382,9.015317 -3.28711,13.355469 -3.95465,11.892157 -9.0984,20.426322 -17.28711,28.68164 -2.96021,2.984283 -4.03399,3.864406 -5.26563,4.31836 -1.01488,0.37406 -2.13505,1.163057 -3.2539,2.291015 -0.93822,0.945859 -2.67782,2.356799 -3.86719,3.136719 -2.50264,1.64112 -3.24609,1.966509 -3.24609,1.417969 0,-0.53191 0.73969,-1.570425 2.79492,-3.927734 5.93367,-6.805836 8.63801,-12.501545 12.19531,-25.685547 1.10884,-4.109559 1.0576,-5.355103 -0.29102,-7.251953 -1.79601,-2.526128 -1.28724,-4.235576 1.70508,-5.746094 2.09565,-1.057883 2.61007,-1.697175 3.08594,-3.830078 0.18519,-0.830052 0.47202,-1.764774 0.63867,-2.076172 0.31022,-0.579644 2.04432,-1.205885 3.34375,-1.208985 1.26118,-0.003 2.83203,-0.931068 2.83203,-1.671875 0,-1.628261 1.96314,-2.972656 4.33985,-2.972656 z m -120.388675,0.853516 3.822266,0.126953 c 4.34914,0.14479 5.060932,0.427693 6.070312,2.40625 0.68163,1.336101 1.108656,1.553598 2.972656,1.517578 1.49214,-0.02883 2.941477,0.65006 3.628907,1.699219 0.28434,0.43395 0.53439,1.585394 0.58789,2.710937 0.09025,1.89882 0.120885,1.964217 1.021485,2.148438 1.23763,0.253159 2.289645,0.818934 3.353515,1.804687 1.54708,1.433483 1.566464,1.669893 0.371094,4.388672 -0.64423,1.46524 -1.095703,2.988443 -1.095703,3.703125 0,1.970121 2.358179,10.630681 4.037109,14.828125 2.58348,6.458885 5.816312,11.674196 10.328125,16.664063 1.120875,1.23963 2.03711,2.388164 2.03711,2.552734 0,0.16457 -0.109965,0.298828 -0.244141,0.298828 -0.386035,0 -5.963433,-3.461946 -7.658203,-4.753906 C 78.39632,81.294028 69.574699,71.607102 66.074219,65.347656 62.081329,58.207713 58.177602,46.890926 56.544922,37.726562 Z m 62.005855,11.957031 c 1.49792,-0.03584 2.814,0.580589 3.71875,1.814453 0.59488,0.811324 0.5983,0.881521 0.0879,1.392578 -0.42706,0.427548 -1.15427,0.55183 -3.54297,0.59961 -3.30315,0.06607 -4.33214,-0.12486 -4.81641,-0.892578 -0.41341,-0.655389 0.12286,-1.327542 1.70898,-2.136719 0.97934,-0.49962 1.94501,-0.755841 2.84375,-0.777344 z m 5.21094,5.603516 c 0.32771,0.0044 0.52797,0.024 0.5625,0.0625 0.12118,0.135128 1.36944,3.310133 2.77344,7.054687 2.53491,6.760733 3.37268,8.722393 3.39648,7.955078 0.0111,-0.358487 -1.48731,-4.551226 -3.86132,-10.802734 -0.90277,-2.377278 -0.86216,-3.1875 0.1582,-3.1875 1.61887,0 5.60674,4.920817 10.00195,12.33789 1.54989,2.615495 2.87,4.599031 2.9336,4.408204 0.16558,-0.496732 -2.30962,-4.691407 -6.04688,-10.246094 -2.77989,-4.131741 -3.14088,-4.810428 -2.60742,-4.892578 0.99164,-0.152709 4.18985,1.642932 6.55859,3.68164 4.59389,3.953838 9.9192,10.894836 12.52539,16.328125 l 1.23438,2.576172 -2.67383,2.585938 c -1.69333,1.637184 -3.0488,2.682586 -3.69336,2.849609 -0.75536,0.195732 -1.08039,0.492315 -1.25586,1.148438 -0.32715,1.223278 -1.81516,2.677565 -4.90625,4.791015 -3.54521,2.42394 -8.04962,4.836958 -8.03516,4.304688 0.0179,-0.65743 2.89021,-5.942318 3.29688,-6.066407 0.2018,-0.06156 0.59181,0.279213 0.86719,0.757813 0.48481,0.84255 0.49509,0.792747 0.33008,-1.564453 -0.17455,-2.493538 -1.26959,-7.900403 -2.40235,-11.855469 -0.5053,-1.764282 -0.77861,-2.256614 -1.32812,-2.394531 -0.38035,-0.09546 -1.43463,-0.682612 -2.3418,-1.306641 -3.5533,-2.444234 -8.92234,-4.099294 -12.08594,-3.724609 -1.89942,0.224958 -5.10636,1.571358 -8.16406,3.427734 -1.31668,0.799379 -2.45043,1.395262 -2.51953,1.326172 -0.15928,-0.159276 1.48438,-4.915382 3.74414,-10.835937 0.96312,-2.523343 1.69841,-4.748476 1.63281,-4.945313 -0.28267,-0.847996 -5.71602,13.953748 -7.51562,20.47461 -1.8648,6.757158 -1.77529,8.544165 0.64453,12.765624 1.55512,2.71297 1.9819,3.990235 1.33203,3.990235 -1.25497,0 -3.66206,-2.927771 -3.66406,-4.457031 v -0.958985 l -0.61328,1.00586 c -0.66939,1.09788 -0.94134,1.187224 -1.958989,0.646484 -1.31406,-0.69826 -6.416218,-5.033034 -6.298828,-5.351563 0.06549,-0.177683 0.562732,-1.818773 1.103516,-3.646484 3.451712,-11.665886 12.156501,-25.905992 16.589841,-27.138672 1.4665,-0.407756 9.99317,-1.134668 12.28711,-1.103515 z m -17.3457,2.425781 c 0.28485,-0.03115 0.49698,0.0068 0.61328,0.123047 0.18753,0.187537 -0.90406,2.092144 -2.99219,5.216797 -4.192877,6.274292 -7.06559,12.090265 -9.177732,18.585937 -0.904331,2.781173 -1.733208,5.056022 -1.84375,5.056641 -0.368315,0.0022 -6.559443,-7.66269 -7.285156,-9.019532 -0.920125,-1.72028 -0.942829,-3.755329 -0.05664,-5.208984 1.390663,-2.281241 10.870097,-10.527344 12.101563,-10.527344 0.596721,0 0.105318,0.92892 -1.40625,2.66211 -4.059923,4.65518 -7.846755,9.614179 -7.560547,9.90039 0.08652,0.08652 1.716958,-1.812568 3.623047,-4.220703 4.232163,-5.346879 7.606589,-8.918951 10.068355,-10.660156 1.55196,-1.097645 3.06147,-1.814751 3.91602,-1.908203 z m 35.66797,6.392578 c 1.10445,0 8.61759,7.305475 10.39453,10.107422 0.51061,0.805154 0.92773,1.777453 0.92773,2.160156 0,0.382702 -0.32701,1.078155 -0.72851,1.544922 l -0.73047,0.847656 -0.79297,-0.791015 c -0.43578,-0.43578 -1.16997,-1.541947 -1.63281,-2.457032 -1.14103,-2.255936 -2.95436,-4.912824 -5.25,-7.697265 -2.31893,-2.812689 -2.84972,-3.714844 -2.1875,-3.714844 z m -22.40235,7.595703 h 0.002 0.002 0.002 0.002 0.002 0.002 0.002 0.002 c 5.76262,0.262031 10.93043,4.318997 12.51367,10.167969 0.7216,2.665798 0.53421,6.538871 -0.42187,8.68164 -1.64458,3.685831 -5.12529,6.940305 -8.7793,8.208985 -1.8859,0.65479 -8.30632,1.262433 -8.57031,0.828125 -0.003,-4.88e-4 -0.005,0.0027 -0.008,0.002 -0.0209,-0.0068 -0.0377,-0.01965 -0.0527,-0.03516 -0.0123,-0.01295 -0.0211,-0.02842 -0.0312,-0.04297 -0.008,-0.0113 -0.0132,-0.02464 -0.0195,-0.03711 -0.005,-0.0039 -0.0104,-0.0076 -0.0156,-0.01172 -0.047,-0.03726 -0.0948,-0.0761 -0.13672,-0.119141 -0.0344,-0.03619 -0.0632,-0.07363 -0.0879,-0.117187 -9.8e-4,-0.0018 -8.4e-4,-0.0041 -0.002,-0.0059 -0.0199,-0.01655 -0.0398,-0.03321 -0.0566,-0.05273 -0.0282,-0.03071 -0.0547,-0.06224 -0.082,-0.09375 -0.0295,-0.03454 -0.0601,-0.06893 -0.0918,-0.101562 -0.0365,-0.03974 -0.0726,-0.07965 -0.10937,-0.119141 -0.0405,-0.04457 -0.0799,-0.08904 -0.11914,-0.134766 -0.0476,-0.05654 -0.0943,-0.113713 -0.14453,-0.167969 -0.0529,-0.05602 -0.10775,-0.109921 -0.16797,-0.158203 -0.0613,-0.04998 -0.12515,-0.09853 -0.18946,-0.144531 -0.0276,-0.02022 -0.0543,-0.04178 -0.0781,-0.06641 -0.19734,-0.05144 -0.45894,-0.160747 -0.87891,-0.375 -3.28104,-1.67386 -6.35509,-6.090016 -7.05859,-10.134766 -1.30605,-7.509034 4.15891,-14.680404 12.07422,-15.84375 0.83873,-0.123272 1.67481,-0.164386 2.49804,-0.126953 z M 75.816406,82.349609 c 0.28593,-5.16e-4 0.530563,0.2123 0.789063,0.634766 0.2681,0.438159 0.166916,0.686482 -0.535157,1.296875 -1.770696,1.5395 -2.944352,0.360375 -1.289062,-1.294922 0.42369,-0.423701 0.749226,-0.636202 1.035156,-0.636719 z m 85.468754,1.121094 c 0.55094,0.03797 1.24391,0.536122 1.63281,1.332031 0.77717,1.590526 0.57915,1.850509 -0.90625,1.183594 -1.32213,-0.593605 -1.78199,-1.234486 -1.46875,-2.050781 0.132,-0.343988 0.41162,-0.487628 0.74219,-0.464844 z m -81.339848,0.949219 c 0.29194,-0.0017 1.003722,0.412155 1.582032,0.919922 1.09632,0.96258 4.427588,5.791155 4.171875,6.046875 -0.08069,0.08068 -1.246251,-0.480414 -2.589844,-1.246094 -1.3436,-0.76569 -2.796606,-1.392578 -3.228516,-1.392578 -0.43192,0 -1.499053,0.481099 -2.371093,1.068359 -3.99405,2.68976 -3.70471,7.362752 0.59375,9.613282 l 1.691406,0.884762 1.427734,-0.544919 c 2.48312,-0.94832 4.535156,-3.965432 4.535156,-6.669922 0,-0.35014 0.10982,-0.636718 0.244141,-0.636718 0.134324,0 1.23954,1.741603 2.457031,3.871093 l 2.214844,3.873046 -1.607422,1.17969 c -0.883745,0.649 -2.720375,1.95116 -4.082031,2.89453 -3.869552,2.68089 -3.527068,2.63066 -5.335937,0.77539 -3.05098,-3.12923 -10.292969,-12.655292 -10.292969,-13.539062 0,-1.29149 8.647053,-7.086596 10.589843,-7.097656 z m 76.847658,0.925781 c 3.03391,0 10.35547,5.234737 10.35547,7.404297 0,1.27653 -4.57609,7.4023 -9.5,12.7207 -0.94007,1.01539 -1.88366,1.84571 -2.09766,1.84571 -0.80778,0 -8.82317,-5.83913 -8.82617,-6.42969 -0.004,-0.91489 4.56263,-9.003289 7.50977,-13.298829 1.38531,-2.019152 1.6417,-2.242188 2.55859,-2.242188 z m -76.376954,5.015625 c 0.604781,0.0198 1.200599,0.135856 1.740234,0.361328 3.292902,1.37587 3.14309,5.364852 -0.289062,7.669922 -1.78371,1.19795 -2.582674,1.311374 -3.777344,0.53711 -2.16095,-1.400521 -3.125517,-4.448373 -2.060547,-6.507813 0.679567,-1.314143 2.572373,-2.119951 4.386719,-2.060547 z m 7.865234,1.365234 c 0.191329,0.02499 0.504587,0.169919 1.035156,0.449219 0.680828,0.35841 1.655039,1.057758 2.164063,1.554688 0.828358,0.8087 0.925234,1.10438 0.927734,2.80664 0.0034,2.25752 -0.400773,2.56279 -1.486328,1.125 -1.229077,-1.62789 -3.056315,-5.138916 -2.945313,-5.660156 0.04352,-0.20431 0.113359,-0.300383 0.304688,-0.275391 z m 60.93359,0.150391 c 0.0849,0.0072 0.15444,0.03334 0.20118,0.08008 0.26316,0.26315 -1.82425,4.310734 -3.17188,6.152344 -0.59162,0.80848 -1.21231,1.470703 -1.38086,1.470703 -0.91624,0 0.22368,-4.121942 1.66211,-6.007812 0.67845,-0.889499 2.09537,-1.745719 2.68945,-1.695313 z m -55.101559,3.074219 c 0.07991,-0.0051 0.169898,0.0014 0.271485,0.01758 0.487617,0.07743 1.239813,0.396176 2.398437,0.916016 1.159821,0.52038 3.644267,1.445287 5.521487,2.054687 1.87721,0.6094 3.54534,1.226267 3.70703,1.373047 0.30434,0.27622 -10.013793,0.316077 -11.125001,0.04297 -1.148708,-0.28236 -1.392578,-0.736053 -1.392578,-2.597657 0,-1.206468 0.05978,-1.771016 0.61914,-1.80664 z m 49.132809,0.605469 c 0.98,0 1.15544,0.688945 0.65235,2.572265 -0.37666,1.41003 -0.56138,1.650355 -1.50977,1.974614 -0.68144,0.23287 -2.91116,0.35708 -6.0332,0.33398 -5.77187,-0.0427 -7.58203,-0.17277 -7.58203,-0.541016 0,-0.48962 12.83993,-4.339843 14.47265,-4.339843 z m -72.814449,1.857421 c 1.63545,10e-7 7.738867,8.263508 7.179687,9.720708 -0.27481,0.71616 -0.857618,0.60879 -2.236328,-0.41211 -1.82976,-1.3549 -4.692327,-5.02894 -5.654297,-7.255863 -0.508,-1.17599 -0.204532,-2.052734 0.710938,-2.052735 z m 96.439449,0.634766 c 0.38393,0.04384 0.65309,0.295793 0.76758,0.751953 0.28482,1.1348 -1.08744,3.254179 -4.05273,6.259769 -2.34775,2.3797 -3.13351,2.88602 -3.66016,2.35937 -0.35232,-0.35232 -0.22755,-1.32791 0.30078,-2.36133 0.76461,-1.49563 4.29331,-5.927095 5.18555,-6.511715 0.57588,-0.377335 1.07506,-0.541883 1.45898,-0.498047 z m -52.59179,0.15625 c 9e-5,0.0013 -2.4e-4,0.0026 0,0.0039 l 0.002,-0.002 z M 90.679688,101.4375 h 27.283202 27.2832 l 3.44727,2.51172 c 4.04435,2.94952 5.45703,4.22597 5.45703,4.92773 0,2.09043 -9.02084,5.07184 -20.15234,6.66016 -2.51302,0.35858 -6.35872,0.52704 -13.42578,0.58984 -10.65073,0.0947 -11.12278,0.0771 -16.66993,-0.625 -8.518143,-1.07809 -20.864474,-4.9752 -21.179684,-6.68554 -0.14229,-0.77203 1.591885,-2.55956 4.94336,-5.09766 z m -21.570313,1.86133 c 0.994101,0.0806 2.542388,1.65923 4.636719,4.73047 1.71131,2.50949 2.175307,3.71465 1.804687,4.68945 -0.16488,0.43366 -0.476389,0.78813 -0.693359,0.78906 -0.70956,0.003 -5.427242,-5.20251 -6.263672,-6.91211 -0.65979,-1.34857 -0.749751,-1.80622 -0.494141,-2.47851 0.221735,-0.58321 0.557902,-0.855 1.009766,-0.81836 z m 99.087895,0.0566 c 0.55686,0.0795 0.64961,0.29879 0.63671,1.49414 -0.018,1.66574 -1.40554,3.95363 -4.14453,6.83203 -2.32056,2.43867 -3.36281,2.48018 -3.11914,0.12305 0.22448,-2.1714 5.29713,-8.63907 6.62696,-8.44922 z M 67.261719,108.0293 c 0.418241,0.0556 0.979984,0.49442 1.730469,1.32226 2.109397,2.32681 4.386718,5.71319 4.386718,6.52344 0,1.04747 -0.615608,0.90738 -2.673828,-0.61328 -3.3896,-2.50432 -4.75618,-4.48811 -4.3125,-6.25586 0.17683,-0.70456 0.4509,-1.03217 0.869141,-0.97656 z m 102.566401,0.91797 c 1.02996,0.0879 1.40715,1.69251 0.52344,3.01953 -0.79031,1.18676 -3.23037,3.68203 -4.5664,4.66992 -0.66381,0.49084 -1.46443,0.89258 -1.7793,0.89258 -0.87168,0 -0.7273,-1.49069 0.30078,-3.11133 1.15791,-1.82532 4.26964,-5.16534 5.04102,-5.41016 0.17199,-0.0546 0.33333,-0.0731 0.48046,-0.0605 z m -89.060542,0.55859 c 0.70374,0.0827 4.589671,2.77081 4.904297,3.39258 0.24373,0.48165 0.387825,2.13768 0.390625,4.49804 0.0032,2.657 0.153258,4.17704 0.519531,5.26172 1.560049,4.6199 5.955752,8.03618 10.310547,8.01368 3.348672,-0.0173 5.753822,-1.74459 12.056642,-8.64844 l 4.13672,-4.5293 6.27539,0.0957 c 7.3436,0.11076 6.94869,-0.0436 9.85547,3.83399 4.87204,6.4992 10.61929,10.11069 14.47656,9.09375 1.95863,-0.51637 3.61572,-1.58173 5.40039,-3.46875 3.02357,-3.19698 4.19154,-6.50481 4.06055,-11.50977 l -0.0879,-3.3164 1.01171,-0.9043 c 1.66904,-1.49624 2.09709,-1.26847 2.5,1.33594 0.51796,3.34766 0.97657,8.38392 0.97657,10.73242 0,4.0105 -1.44021,7.28488 -4.71875,10.73633 -3.85746,4.06089 -9.72263,8.10074 -17.20117,11.84961 -4.67773,2.34488 -8.36114,3.60396 -11.80469,4.0332 -2.46035,0.30669 -8.92693,0.37711 -10.99414,0.11914 -5.9161,-0.73829 -11.31102,-3.04186 -19.806643,-8.45508 -11.904441,-7.58525 -14.103101,-10.98402 -13.681641,-21.15234 0.17963,-4.33393 1.046532,-11.05562 1.419922,-11.01172 z m -15.763672,3.83008 c 0.922707,-0.0135 2.873391,1.34846 5.521485,3.95312 2.03804,2.00462 2.559375,3.0346 1.921875,3.80274 -0.53205,0.64108 -0.622753,0.6158 -2.726563,-0.78907 -2.14922,-1.43519 -4.919612,-4.32925 -5.195312,-5.42773 -0.257809,-1.02719 -0.07511,-1.53098 0.478515,-1.53906 z m 107.054684,0.0391 c 0.44848,-0.0211 0.66016,0.33273 0.66016,1.04688 0,1.55732 -3.30287,5.19161 -5.94531,6.54296 -1.38552,0.70856 -2.06157,0.74446 -2.30078,0.1211 -0.25475,-0.66388 0.59644,-1.82969 3.23437,-4.4336 2.1958,-2.16747 3.6041,-3.24222 4.35156,-3.27734 z m -108.962887,3.99609 c 0.973475,0.11405 2.94956,1.49783 5.21875,3.6875 2.11339,2.03933 2.316209,2.34207 2.224609,3.30079 -0.132579,1.38723 -0.688731,1.45207 -2.519531,0.29101 -3.91697,-2.48406 -6.925866,-6.61546 -5.277343,-7.24805 0.09614,-0.0369 0.214447,-0.0476 0.353515,-0.0312 z m 110.421877,0.83008 c 0.44292,-0.0341 0.73248,0.16736 0.84961,0.61524 0.43374,1.65865 -1.71859,4.14806 -5.03516,5.82226 -2.03018,1.02483 -2.35772,1.09878 -2.66015,0.60938 -0.41052,-0.66421 0.19138,-1.75506 1.93554,-3.51367 2.22374,-2.24215 3.93573,-3.45811 4.91016,-3.53321 z"
       style="opacity:1;fill:#000000;fill-opacity:1;fill-rule:nonzero;stroke:none;stroke-width:0.30946726;stroke-opacity:1"
       id="path5120"
       inkscape:connector-curvature="0" />
    <path
       inkscape:connector-curvature="0"
       id="path5126"
       d="m 104.94463,105.63696 c 0,-0.63508 0.87025,-1.41471 1.57915,-1.41471 0.85681,0 1.12845,0.9219 0.42352,1.43735 -0.7598,0.55558 -2.00267,0.54153 -2.00267,-0.0226 z"
       style="opacity:1;fill:#000000;fill-opacity:1;fill-rule:nonzero;stroke:none;stroke-width:0.30946726;stroke-opacity:1" />
    <path
       inkscape:connector-curvature="0"
       id="path5128"
       d="m 113.16558,105.79176 c -0.63543,-0.70215 -0.41789,-1.76011 0.41637,-2.0249 1.37823,-0.43743 2.35301,0.97216 1.4003,2.0249 -0.29704,0.32822 -0.70578,0.59676 -0.90833,0.59676 -0.20256,0 -0.6113,-0.26854 -0.90834,-0.59676 z"
       style="opacity:1;fill:#000000;fill-opacity:1;fill-rule:nonzero;stroke:none;stroke-width:0.30946726;stroke-opacity:1" />
    <path
       inkscape:connector-curvature="0"
       id="path5130"
       d="m 120.91336,105.82002 c -0.30164,-0.48807 0.77032,-1.59777 1.54343,-1.59777 0.98957,0 1.34608,0.87924 0.58281,1.43735 -0.63849,0.46688 -1.87899,0.56047 -2.12624,0.16042 z"
       style="opacity:1;fill:#000000;fill-opacity:1;fill-rule:nonzero;stroke:none;stroke-width:0.30946726;stroke-opacity:1" />
    <path
       inkscape:connector-curvature="0"
       id="path5132"
       d="m 129.31518,106.05842 c -0.62175,-0.3669 -0.7173,-1.53666 -0.17021,-2.08374 0.57421,-0.57421 1.40163,-0.44092 1.928,0.31058 0.40702,0.5811 0.41559,0.77561 0.0579,1.31524 -0.49752,0.75069 -1.07348,0.89594 -1.81573,0.45792 z"
       style="opacity:1;fill:#000000;fill-opacity:1;fill-rule:nonzero;stroke:none;stroke-width:0.30946726;stroke-opacity:1" />
    <path
       inkscape:connector-curvature="0"
       id="path5134"
       d="m 115.53791,137.60917 c -1.52918,-0.75692 -4.40528,-3.80495 -5.30361,-5.62064 -0.80775,-1.63262 -0.49157,-2.21148 1.77727,-3.25382 2.35063,-1.07992 7.91829,-1.35749 10.75521,-0.53619 1.56995,0.4545 4.7707,2.42378 4.76811,2.93361 -0.003,0.56736 -5.46409,5.93719 -6.59501,6.48466 -1.71293,0.82921 -3.71709,0.82639 -5.40197,-0.008 z"
       style="opacity:1;fill:#000000;fill-opacity:1;fill-rule:nonzero;stroke:none;stroke-width:0.30946726;stroke-opacity:1" />
    <path
       inkscape:connector-curvature="0"
       id="path5136"
       d="m 117.98395,147.12784 c -0.94004,-1.00062 -1.19169,-2.75475 -0.53828,-3.75199 1.52358,-2.32528 3.53998,0.95905 2.19071,3.56825 -0.57049,1.1032 -0.76802,1.12516 -1.65243,0.18374 z"
       style="opacity:1;fill:#000000;fill-opacity:1;fill-rule:nonzero;stroke:none;stroke-width:0.30946726;stroke-opacity:1" />
    <path
       inkscape:connector-curvature="0"
       id="path5140"
       d="m 156.36173,101.08257 c -2.2443,-0.64598 -5.02615,-4.443607 -4.57418,-6.244407 0.53794,-2.14332 3.57743,-5.16087 5.1984,-5.16087 1.44392,0 5.41796,3.21188 6.14462,4.96618 0.41558,1.00329 -0.0328,2.07289 -1.63658,3.90372 -0.90778,1.03631 -3.50388,2.930167 -3.92314,2.861937 -0.0943,-0.0153 -0.63844,-0.1623 -1.20912,-0.32656 z m 2.67463,-1.159927 c 1.45306,-0.74161 2.05654,-1.43442 2.52777,-2.90192 1.15515,-3.59736 -1.77258,-6.71949 -5.3951,-5.75332 -1.50092,0.40031 -3.24349,2.15072 -3.29123,3.30603 -0.099,2.39552 0.3371,3.26294 2.4524,4.87809 1.5913,1.215047 2.1175,1.281937 3.70616,0.47112 z"
       style="opacity:1;fill:#000000;fill-opacity:1;fill-rule:nonzero;stroke:none;stroke-width:0.30946726;stroke-opacity:1" />
  </g>
</svg>
