<?xml version="1.0" encoding="UTF-8" standalone="no"?>
<!-- Created with Inkscape (http://www.inkscape.org/) -->

<svg
   xmlns:dc="http://purl.org/dc/elements/1.1/"
   xmlns:cc="http://creativecommons.org/ns#"
   xmlns:rdf="http://www.w3.org/1999/02/22-rdf-syntax-ns#"
   xmlns:svg="http://www.w3.org/2000/svg"
   xmlns="http://www.w3.org/2000/svg"
   xmlns:sodipodi="http://sodipodi.sourceforge.net/DTD/sodipodi-0.dtd"
   xmlns:inkscape="http://www.inkscape.org/namespaces/inkscape"
   version="1.1"
   id="svg815"
   width="236"
   height="179"
   viewBox="0 0 236 179"
   sodipodi:docname="copied panda samurai v2.svg"
   inkscape:version="0.92.2 (5c3e80d, 2017-08-06)">
  <metadata
     id="metadata821">
    <rdf:RDF>
      <cc:Work
         rdf:about="">
        <dc:format>image/svg+xml</dc:format>
        <dc:type
           rdf:resource="http://purl.org/dc/dcmitype/StillImage" />
        <dc:title></dc:title>
      </cc:Work>
    </rdf:RDF>
  </metadata>
  <defs
     id="defs819">
    <clipPath
       clipPathUnits="userSpaceOnUse"
       id="clipPath5624">
      <rect
         style="opacity:1;fill:#008080;fill-opacity:1;fill-rule:nonzero;stroke:none;stroke-width:1.2959702;stroke-opacity:1"
         id="rect5626"
         width="76.40979"
         height="133.71808"
         x="119.81868"
         y="31.579176"
         transform="matrix(0.94722585,0.32056699,-0.28184253,0.95946067,0,0)" />
    </clipPath>
    <clipPath
       clipPathUnits="userSpaceOnUse"
       id="clipPath5628">
      <rect
         style="opacity:1;fill:#008080;fill-opacity:1;fill-rule:nonzero;stroke:none;stroke-width:1.29463804;stroke-opacity:1"
         id="rect5630"
         width="75.25"
         height="135.5"
         x="118"
         y="32" />
    </clipPath>
    <clipPath
       clipPathUnits="userSpaceOnUse"
       id="clipPath5632">
      <rect
         style="opacity:1;fill:#008080;fill-opacity:1;fill-rule:nonzero;stroke:none;stroke-width:1.29463804;stroke-opacity:1"
         id="rect5634"
         width="75.25"
         height="135.5"
         x="118"
         y="32" />
    </clipPath>
    <clipPath
       clipPathUnits="userSpaceOnUse"
       id="clipPath5636">
      <rect
         style="opacity:1;fill:#008080;fill-opacity:1;fill-rule:nonzero;stroke:none;stroke-width:1.29463804;stroke-opacity:1"
         id="rect5638"
         width="75.25"
         height="135.5"
         x="118"
         y="32" />
    </clipPath>
    <clipPath
       clipPathUnits="userSpaceOnUse"
       id="clipPath5640">
      <rect
         style="opacity:1;fill:#008080;fill-opacity:1;fill-rule:nonzero;stroke:none;stroke-width:1.29463804;stroke-opacity:1"
         id="rect5642"
         width="75.25"
         height="135.5"
         x="118"
         y="32" />
    </clipPath>
    <clipPath
       clipPathUnits="userSpaceOnUse"
       id="clipPath5644">
      <rect
         style="opacity:1;fill:#008080;fill-opacity:1;fill-rule:nonzero;stroke:none;stroke-width:1.29463804;stroke-opacity:1"
         id="rect5646"
         width="75.25"
         height="135.5"
         x="118"
         y="32" />
    </clipPath>
    <clipPath
       clipPathUnits="userSpaceOnUse"
       id="clipPath5648">
      <rect
         style="opacity:1;fill:#008080;fill-opacity:1;fill-rule:nonzero;stroke:none;stroke-width:1.29463804;stroke-opacity:1"
         id="rect5650"
         width="75.25"
         height="135.5"
         x="118"
         y="32" />
    </clipPath>
    <clipPath
       clipPathUnits="userSpaceOnUse"
       id="clipPath5652">
      <rect
         style="opacity:1;fill:#008080;fill-opacity:1;fill-rule:nonzero;stroke:none;stroke-width:1.29463804;stroke-opacity:1"
         id="rect5654"
         width="75.25"
         height="135.5"
         x="118"
         y="32" />
    </clipPath>
    <clipPath
       clipPathUnits="userSpaceOnUse"
       id="clipPath5656">
      <rect
         style="opacity:1;fill:#008080;fill-opacity:1;fill-rule:nonzero;stroke:none;stroke-width:1.29463804;stroke-opacity:1"
         id="rect5658"
         width="75.25"
         height="135.5"
         x="114.25"
         y="27.5" />
    </clipPath>
    <clipPath
       clipPathUnits="userSpaceOnUse"
       id="clipPath5624-2">
      <rect
         style="opacity:1;fill:#008080;fill-opacity:1;fill-rule:nonzero;stroke:none;stroke-width:1.2959702;stroke-opacity:1"
         id="rect5626-6"
         width="76.40979"
         height="133.71808"
         x="119.81868"
         y="31.579176"
         transform="matrix(0.94722585,0.32056699,-0.28184253,0.95946067,0,0)" />
    </clipPath>
    <clipPath
       clipPathUnits="userSpaceOnUse"
       id="clipPath5628-0">
      <rect
         style="opacity:1;fill:#008080;fill-opacity:1;fill-rule:nonzero;stroke:none;stroke-width:1.29463804;stroke-opacity:1"
         id="rect5630-6"
         width="75.25"
         height="135.5"
         x="118"
         y="32" />
    </clipPath>
    <clipPath
       clipPathUnits="userSpaceOnUse"
       id="clipPath5632-6">
      <rect
         style="opacity:1;fill:#008080;fill-opacity:1;fill-rule:nonzero;stroke:none;stroke-width:1.29463804;stroke-opacity:1"
         id="rect5634-0"
         width="75.25"
         height="135.5"
         x="118"
         y="32" />
    </clipPath>
    <clipPath
       clipPathUnits="userSpaceOnUse"
       id="clipPath5636-5">
      <rect
         style="opacity:1;fill:#008080;fill-opacity:1;fill-rule:nonzero;stroke:none;stroke-width:1.29463804;stroke-opacity:1"
         id="rect5638-6"
         width="75.25"
         height="135.5"
         x="118"
         y="32" />
    </clipPath>
    <clipPath
       clipPathUnits="userSpaceOnUse"
       id="clipPath5640-2">
      <rect
         style="opacity:1;fill:#008080;fill-opacity:1;fill-rule:nonzero;stroke:none;stroke-width:1.29463804;stroke-opacity:1"
         id="rect5642-2"
         width="75.25"
         height="135.5"
         x="118"
         y="32" />
    </clipPath>
    <clipPath
       clipPathUnits="userSpaceOnUse"
       id="clipPath5644-1">
      <rect
         style="opacity:1;fill:#008080;fill-opacity:1;fill-rule:nonzero;stroke:none;stroke-width:1.29463804;stroke-opacity:1"
         id="rect5646-7"
         width="75.25"
         height="135.5"
         x="118"
         y="32" />
    </clipPath>
    <clipPath
       clipPathUnits="userSpaceOnUse"
       id="clipPath5656-4">
      <rect
         style="opacity:1;fill:#008080;fill-opacity:1;fill-rule:nonzero;stroke:none;stroke-width:1.29463804;stroke-opacity:1"
         id="rect5658-0"
         width="75.25"
         height="135.5"
         x="114.25"
         y="27.5" />
    </clipPath>
  </defs>
  <sodipodi:namedview
     pagecolor="#ffffff"
     bordercolor="#666666"
     borderopacity="1"
     objecttolerance="10"
     gridtolerance="10"
     guidetolerance="10"
     inkscape:pageopacity="0"
     inkscape:pageshadow="2"
     inkscape:window-width="1920"
     inkscape:window-height="1017"
     id="namedview817"
     showgrid="false"
     inkscape:zoom="4"
     inkscape:cx="134.93099"
     inkscape:cy="66.031774"
     inkscape:window-x="1672"
     inkscape:window-y="-8"
     inkscape:window-maximized="1"
     inkscape:current-layer="g5751" />
  <g
     id="g5536"
     transform="translate(-3.7499999,-4.5)"
     style="fill:#000000">
    <path
       inkscape:connector-curvature="0"
       id="path5126"
       d="m 104.94463,105.63696 c 0,-0.63508 0.87025,-1.41471 1.57915,-1.41471 0.85681,0 1.12845,0.9219 0.42352,1.43735 -0.7598,0.55558 -2.00267,0.54153 -2.00267,-0.0226 z"
       style="opacity:1;fill:#000000;fill-opacity:1;fill-rule:nonzero;stroke:none;stroke-width:0.30946726;stroke-opacity:1"
       clip-path="url(#clipPath5652)" />
    <path
       inkscape:connector-curvature="0"
       id="path5128"
       d="m 113.16558,105.79176 c -0.63543,-0.70215 -0.41789,-1.76011 0.41637,-2.0249 1.37823,-0.43743 2.35301,0.97216 1.4003,2.0249 -0.29704,0.32822 -0.70578,0.59676 -0.90833,0.59676 -0.20256,0 -0.6113,-0.26854 -0.90834,-0.59676 z"
       style="opacity:1;fill:#000000;fill-opacity:1;fill-rule:nonzero;stroke:none;stroke-width:0.30946726;stroke-opacity:1"
       clip-path="url(#clipPath5648)" />
    <g
       id="g5769">
      <g
         id="g5742">
        <path
           style="opacity:1;fill:#000000;fill-opacity:1;fill-rule:nonzero;stroke:none;stroke-width:0.30946726;stroke-opacity:1"
           d="M 50.099609 21.890625 L 50.287109 26.533203 C 50.961049 43.148661 56.031309 57.035667 66.667969 71.40625 L 69.873047 75.738281 L 67.904297 79.607422 C 65.464347 84.398685 64.677734 86.644689 64.677734 88.824219 C 64.677734 92.277689 62.046251 101.84617 58.957031 109.625 C 57.167971 114.12995 56.981804 115.31294 57.808594 116.93359 C 59.156674 119.57604 63.97666 122.79239 66.25 122.56641 C 67.54082 122.4381 68.372806 120.98003 70.816406 114.55664 C 73.081556 108.60233 73.587665 107.57985 74.046875 108.03906 C 74.296565 108.28875 74.234399 109.63119 73.818359 113.01367 C 72.804029 121.26029 73.804649 126.33796 77.226562 130.30469 C 79.976005 133.49188 87.686054 138.91377 94.501953 142.45312 C 101.93566 146.31331 104.25449 147.06036 109.70508 147.35352 C 116.68463 147.72891 122.53488 147.28532 126.0625 146.11328 C 128.84181 145.18988 136.12572 141.51468 139.95117 139.10547 C 145.06494 135.88491 146.90152 134.47322 150.12305 131.28711 C 155.20831 126.25777 155.94016 123.86364 155.38086 114.08398 C 155.0398 108.1204 155.18607 106.28382 155.89453 107.64062 C 156.06427 107.96569 157.00051 110.32189 157.97461 112.875 C 161.1983 121.32423 162.04548 122.62883 164.29102 122.61523 C 167.71777 122.59443 172.37305 118.1117 172.37305 114.83203 C 172.37305 114.22704 171.8747 112.66039 171.26367 111.33789 C 168.83766 106.08711 165.11143 93.592886 164.65039 89.166016 C 164.39548 86.718396 164.18063 86.115781 162.01953 81.800781 C 160.69298 79.152097 159.7642 76.940287 159.89062 76.730469 C 160.014 76.525734 161.56955 74.553665 163.34961 72.349609 C 170.19753 63.870605 174.3592 56.194312 177.59766 46.064453 C 178.71279 42.576336 179.54888 39.217565 180.14258 35.8125 L 177.80273 36.599609 C 177.13357 39.519959 176.15185 43.213974 175.27344 45.855469 C 171.31879 57.747626 166.17504 66.281791 157.98633 74.537109 C 155.02612 77.521392 153.95234 78.401515 152.7207 78.855469 C 151.70582 79.229529 150.58565 80.018526 149.4668 81.146484 C 148.52858 82.092343 146.78898 83.503283 145.59961 84.283203 C 143.09697 85.924323 142.35352 86.249712 142.35352 85.701172 C 142.35352 85.169262 143.09321 84.130747 145.14844 81.773438 C 151.08211 74.967602 153.78645 69.271893 157.34375 56.087891 C 158.45259 51.978332 158.40135 50.732788 157.05273 48.835938 C 155.25672 46.30981 155.76549 44.600362 158.75781 43.089844 C 158.90815 43.013954 159.03334 42.943381 159.16797 42.871094 L 154.33789 44.496094 C 154.15641 45.137632 154.1207 45.852986 154.20703 46.689453 C 154.29743 47.565122 154.62057 48.749941 154.92578 49.322266 C 156.00724 51.350154 155.41395 55.143707 152.70117 63.535156 L 151.60156 66.933594 L 150.70508 66.402344 C 150.21155 66.110807 148.02511 64.212161 145.84766 62.181641 C 138.91999 55.721459 133.33201 52.062574 126.57031 49.5625 C 122.29051 47.980087 120.93168 47.172522 119.96094 45.634766 C 119.15338 44.355518 116.88175 42.958318 115.0625 42.621094 C 112.94936 42.229392 110.41187 43.634858 108.94531 46.007812 C 108.25315 47.127738 105.78862 48.561789 103.05078 49.439453 C 97.262721 51.294925 90.194043 55.965595 82.533203 62.996094 C 80.695085 64.682969 79.132547 66.003681 79.060547 65.931641 C 78.629867 65.500959 76.369496 56.157086 76.222656 54.201172 C 76.069816 52.165295 76.160156 51.516305 76.898438 49.34375 C 78.174644 45.588211 77.716632 44.173432 74.576172 42.158203 C 73.034642 41.169009 71.486328 39.093323 71.486328 38.017578 C 71.486328 37.038108 70.613762 35.789114 69.576172 35.283203 C 69.009842 35.007075 67.746441 34.413123 66.769531 33.962891 C 65.792621 33.51266 64.400941 32.580722 63.675781 31.892578 C 61.917681 30.22423 61.033136 29.898213 57.566406 29.636719 C 54.675666 29.418671 53.160749 28.951182 52.818359 28.169922 C 52.722359 27.950868 52.070794 26.448998 51.371094 24.832031 L 50.099609 21.890625 z M 52.609375 32.183594 L 56.431641 32.310547 C 60.780781 32.455337 61.492573 32.73824 62.501953 34.716797 C 63.183583 36.052898 63.610609 36.270395 65.474609 36.234375 C 66.966749 36.205545 68.416086 36.884435 69.103516 37.933594 C 69.387856 38.367544 69.637906 39.518988 69.691406 40.644531 C 69.781656 42.543351 69.812291 42.608748 70.712891 42.792969 C 71.950521 43.046128 73.002536 43.611903 74.066406 44.597656 C 75.613486 46.031139 75.63287 46.267549 74.4375 48.986328 C 73.79327 50.451568 73.341797 51.974771 73.341797 52.689453 C 73.341797 54.659574 75.699976 63.320134 77.378906 67.517578 C 79.962386 73.976463 83.195218 79.191774 87.707031 84.181641 C 88.827906 85.421271 89.744141 86.569805 89.744141 86.734375 C 89.744141 86.898945 89.634176 87.033203 89.5 87.033203 C 89.113965 87.033203 83.536567 83.571257 81.841797 82.279297 C 74.64632 76.794028 65.824699 67.107102 62.324219 60.847656 C 58.331329 53.707713 54.427602 42.390926 52.794922 33.226562 L 52.609375 32.183594 z M 114.61523 44.140625 C 116.11315 44.104785 117.42923 44.721214 118.33398 45.955078 C 118.92886 46.766402 118.93228 46.836599 118.42188 47.347656 C 117.99482 47.775204 117.26761 47.899486 114.87891 47.947266 C 111.57576 48.013336 110.54677 47.822406 110.0625 47.054688 C 109.64909 46.399299 110.18536 45.727146 111.77148 44.917969 C 112.75082 44.418349 113.71649 44.162128 114.61523 44.140625 z M 119.82617 49.744141 C 120.15388 49.748541 120.35414 49.768141 120.38867 49.806641 C 120.50985 49.941769 121.75811 53.116774 123.16211 56.861328 C 125.69702 63.622061 126.53479 65.583721 126.55859 64.816406 C 126.56969 64.457919 125.07128 60.26518 122.69727 54.013672 C 121.7945 51.636394 121.83511 50.826172 122.85547 50.826172 C 124.47434 50.826172 128.46221 55.746989 132.85742 63.164062 C 134.40731 65.779557 135.72742 67.763093 135.79102 67.572266 C 135.9566 67.075534 133.4814 62.880859 129.74414 57.326172 C 126.96425 53.194431 126.60326 52.515744 127.13672 52.433594 C 128.12836 52.280885 131.32657 54.076526 133.69531 56.115234 C 138.2892 60.069072 143.61451 67.01007 146.2207 72.443359 L 147.45508 75.019531 L 144.78125 77.605469 C 143.08792 79.242653 141.73245 80.288055 141.08789 80.455078 C 140.33253 80.65081 140.0075 80.947393 139.83203 81.603516 C 139.50488 82.826794 138.01687 84.281081 134.92578 86.394531 C 131.38057 88.818471 126.87617 91.231489 126.89062 90.699219 C 126.90852 90.041789 129.78083 84.756902 130.1875 84.632812 C 130.3893 84.571252 130.77931 84.912025 131.05469 85.390625 C 131.5395 86.233175 131.54978 86.183372 131.38477 83.826172 C 131.21022 81.332634 130.11518 75.925769 128.98242 71.970703 C 128.47712 70.206421 128.20381 69.714089 127.6543 69.576172 C 127.27395 69.480712 126.21967 68.89356 125.3125 68.269531 C 121.7592 65.825297 116.39016 64.170237 113.22656 64.544922 C 111.32714 64.76988 108.1202 66.11628 105.0625 67.972656 C 103.74582 68.772035 102.61207 69.367918 102.54297 69.298828 C 102.38369 69.139552 104.02735 64.383446 106.28711 58.462891 C 107.25023 55.939548 107.98552 53.714415 107.91992 53.517578 C 107.63725 52.669582 102.2039 67.471326 100.4043 73.992188 C 98.539497 80.749346 98.629008 82.536353 101.04883 86.757812 C 102.60395 89.470782 103.03073 90.748047 102.38086 90.748047 C 101.12589 90.748047 98.718797 87.820276 98.716797 86.291016 L 98.716797 85.332031 L 98.103516 86.337891 C 97.434126 87.435771 97.16218 87.525115 96.144531 86.984375 C 94.830471 86.286115 89.728313 81.951341 89.845703 81.632812 C 89.911193 81.455129 90.408435 79.814039 90.949219 77.986328 C 94.400931 66.320442 103.10572 52.080336 107.53906 50.847656 C 109.00556 50.4399 117.53223 49.712988 119.82617 49.744141 z M 102.48047 52.169922 C 102.76532 52.138772 102.97745 52.176722 103.09375 52.292969 C 103.28128 52.480506 102.18969 54.385113 100.10156 57.509766 C 95.908686 63.784058 93.03597 69.600031 90.923828 76.095703 C 90.019497 78.876876 89.19062 81.151725 89.080078 81.152344 C 88.711763 81.154544 82.520635 73.489655 81.794922 72.132812 C 80.874797 70.412532 80.852092 68.377483 81.738281 66.923828 C 83.128944 64.642587 92.608378 56.396484 93.839844 56.396484 C 94.436565 56.396484 93.945162 57.325404 92.433594 59.058594 C 88.373671 63.713774 84.586839 68.672773 84.873047 68.958984 C 84.959567 69.045504 86.590005 67.146416 88.496094 64.738281 C 92.728257 59.391402 96.102687 55.81933 98.564453 54.078125 C 100.11641 52.98048 101.62592 52.263374 102.48047 52.169922 z M 138.14844 58.5625 C 139.25289 58.5625 146.76603 65.867975 148.54297 68.669922 C 149.05358 69.475076 149.4707 70.447375 149.4707 70.830078 C 149.4707 71.21278 149.14369 71.908233 148.74219 72.375 L 148.01172 73.222656 L 147.21875 72.431641 C 146.78297 71.995861 146.04878 70.889694 145.58594 69.974609 C 144.44491 67.718673 142.63158 65.061785 140.33594 62.277344 C 138.01701 59.464655 137.48622 58.5625 138.14844 58.5625 z M 115.74609 66.158203 L 115.74805 66.158203 L 115.75 66.158203 L 115.75195 66.158203 L 115.75391 66.158203 L 115.75586 66.158203 L 115.75781 66.158203 L 115.75977 66.158203 L 115.76172 66.158203 C 121.52434 66.420234 126.69215 70.4772 128.27539 76.326172 C 128.99699 78.99197 128.8096 82.865043 127.85352 85.007812 C 126.20894 88.693643 122.72823 91.948117 119.07422 93.216797 C 117.18832 93.871587 110.7679 94.47923 110.50391 94.044922 C 110.50091 94.044434 110.49909 94.047575 110.49609 94.046875 C 110.47519 94.040075 110.45836 94.027229 110.44336 94.011719 C 110.43106 93.998769 110.42221 93.9833 110.41211 93.96875 C 110.40411 93.95745 110.39888 93.944111 110.39258 93.931641 C 110.38758 93.927741 110.38215 93.924042 110.37695 93.919922 C 110.32995 93.882662 110.28215 93.843822 110.24023 93.800781 C 110.20583 93.764591 110.17704 93.727151 110.15234 93.683594 C 110.15136 93.681794 110.15155 93.679534 110.15039 93.677734 C 110.13049 93.661184 110.11055 93.64452 110.09375 93.625 C 110.06555 93.59429 110.03902 93.56276 110.01172 93.53125 C 109.98222 93.49671 109.95162 93.46232 109.91992 93.429688 C 109.88342 93.389948 109.84732 93.350038 109.81055 93.310547 C 109.77005 93.265977 109.73065 93.221507 109.69141 93.175781 C 109.64381 93.119241 109.59711 93.062069 109.54688 93.007812 C 109.49398 92.951792 109.43913 92.897891 109.37891 92.849609 C 109.31761 92.799629 109.25376 92.751079 109.18945 92.705078 C 109.16185 92.684858 109.13513 92.663302 109.11133 92.638672 C 108.91399 92.587232 108.65239 92.477925 108.23242 92.263672 C 104.95138 90.589812 101.87733 86.173656 101.17383 82.128906 C 99.867778 74.619872 105.33274 67.448502 113.24805 66.285156 C 114.08678 66.161884 114.92286 66.12077 115.74609 66.158203 z M 72.066406 77.849609 C 72.352336 77.849093 72.596969 78.061909 72.855469 78.484375 C 73.123569 78.922534 73.022386 79.170857 72.320312 79.78125 C 70.549616 81.32075 69.37596 80.141625 71.03125 78.486328 C 71.45494 78.062627 71.780476 77.850126 72.066406 77.849609 z M 157.53516 78.970703 C 158.0861 79.008673 158.77907 79.506825 159.16797 80.302734 C 159.94514 81.89326 159.74712 82.153243 158.26172 81.486328 C 156.93959 80.892723 156.47973 80.251842 156.79297 79.435547 C 156.92497 79.091559 157.20459 78.947919 157.53516 78.970703 z M 76.195312 79.919922 C 76.487252 79.918222 77.199034 80.332077 77.777344 80.839844 C 78.873664 81.802424 82.204932 86.630999 81.949219 86.886719 C 81.868529 86.967399 80.702968 86.406305 79.359375 85.640625 C 78.015775 84.874935 76.562769 84.248047 76.130859 84.248047 C 75.698939 84.248047 74.631806 84.729146 73.759766 85.316406 C 69.765716 88.006166 70.055056 92.679158 74.353516 94.929688 L 76.044922 95.814453 L 77.472656 95.269531 C 79.955776 94.321211 82.007813 91.304099 82.007812 88.599609 C 82.007812 88.249469 82.117632 87.962891 82.251953 87.962891 C 82.386277 87.962891 83.491493 89.704494 84.708984 91.833984 L 86.923828 95.707031 L 85.316406 96.886719 C 84.432661 97.535719 82.596031 98.83788 81.234375 99.78125 C 77.364823 102.46214 77.707307 102.41191 75.898438 100.55664 C 72.847458 97.427411 65.605469 87.901348 65.605469 87.017578 C 65.605469 85.726088 74.252523 79.930982 76.195312 79.919922 z M 153.04297 80.845703 C 156.07688 80.845703 163.39844 86.08044 163.39844 88.25 C 163.39844 89.52653 158.82235 95.652303 153.89844 100.9707 C 152.95837 101.98609 152.01478 102.81641 151.80078 102.81641 C 150.993 102.81641 142.97761 96.977279 142.97461 96.386719 C 142.97061 95.471829 147.53724 87.383431 150.48438 83.087891 C 151.86969 81.068739 152.12608 80.845703 153.04297 80.845703 z M 76.666016 85.861328 C 77.270797 85.881128 77.866615 85.997184 78.40625 86.222656 C 81.699152 87.598526 81.54934 91.587508 78.117188 93.892578 C 76.333478 95.090528 75.534514 95.203952 74.339844 94.429688 C 72.178894 93.029167 71.214327 89.981315 72.279297 87.921875 C 72.958864 86.607732 74.85167 85.801924 76.666016 85.861328 z M 84.53125 87.226562 C 84.722579 87.251553 85.035837 87.396481 85.566406 87.675781 C 86.247234 88.034191 87.221445 88.733539 87.730469 89.230469 C 88.558827 90.039169 88.655703 90.334849 88.658203 92.037109 C 88.661603 94.294629 88.25743 94.599899 87.171875 93.162109 C 85.942798 91.534219 84.11556 88.023193 84.226562 87.501953 C 84.270083 87.297643 84.339921 87.20157 84.53125 87.226562 z M 145.46484 87.376953 C 145.54974 87.384153 145.61928 87.410291 145.66602 87.457031 C 145.92918 87.720181 143.84177 91.767765 142.49414 93.609375 C 141.90252 94.417855 141.28183 95.080078 141.11328 95.080078 C 140.19704 95.080078 141.33696 90.958136 142.77539 89.072266 C 143.45384 88.182767 144.87076 87.326547 145.46484 87.376953 z M 90.363281 90.451172 C 90.443191 90.446072 90.533179 90.45257 90.634766 90.46875 C 91.122383 90.54618 91.874579 90.864926 93.033203 91.384766 C 94.193024 91.905146 96.677468 92.830053 98.554688 93.439453 C 100.4319 94.048853 102.10003 94.66572 102.26172 94.8125 C 102.56606 95.08872 92.247927 95.128576 91.136719 94.855469 C 89.988011 94.573109 89.744141 94.119416 89.744141 92.257812 C 89.744141 91.051344 89.803921 90.486796 90.363281 90.451172 z M 139.49609 91.056641 C 140.47609 91.056641 140.65153 91.745586 140.14844 93.628906 C 139.77178 95.038936 139.58706 95.279257 138.63867 95.603516 C 137.95723 95.836386 135.72751 95.9606 132.60547 95.9375 C 126.8336 95.8948 125.02344 95.76473 125.02344 95.396484 C 125.02344 94.906864 137.86337 91.056641 139.49609 91.056641 z M 66.681641 92.914062 C 68.317091 92.914063 74.420508 101.17757 73.861328 102.63477 C 73.586518 103.35093 73.00371 103.24356 71.625 102.22266 C 69.79524 100.86776 66.932673 97.19372 65.970703 94.966797 C 65.462703 93.790807 65.766171 92.914063 66.681641 92.914062 z M 163.12109 93.548828 C 163.50502 93.592668 163.77418 93.844621 163.88867 94.300781 C 164.17349 95.435581 162.80123 97.554957 159.83594 100.56055 C 157.48819 102.94025 156.70243 103.44657 156.17578 102.91992 C 155.82346 102.5676 155.94823 101.59201 156.47656 100.55859 C 157.24117 99.062964 160.76987 94.631495 161.66211 94.046875 C 162.23799 93.66954 162.73717 93.504992 163.12109 93.548828 z M 110.5293 93.705078 C 110.52939 93.706378 110.52906 93.707684 110.5293 93.708984 L 110.53125 93.707031 L 110.5293 93.705078 z M 86.929688 96.9375 L 114.21289 96.9375 L 141.49609 96.9375 L 144.94336 99.449219 C 148.98771 102.39874 150.40039 103.67519 150.40039 104.37695 C 150.40039 106.46738 141.37955 109.44879 130.24805 111.03711 C 127.73503 111.39569 123.88933 111.56415 116.82227 111.62695 C 106.17154 111.72165 105.69949 111.70405 100.15234 111.00195 C 91.634201 109.92386 79.287866 106.02675 78.972656 104.31641 C 78.830366 103.54438 80.564541 101.75685 83.916016 99.21875 L 86.929688 96.9375 z M 65.359375 98.798828 C 66.353476 98.879428 67.901763 100.45806 69.996094 103.5293 C 71.707404 106.03879 72.171401 107.24395 71.800781 108.21875 C 71.635901 108.65241 71.324392 109.00688 71.107422 109.00781 C 70.397862 109.01081 65.68018 103.8053 64.84375 102.0957 C 64.18396 100.74713 64.093999 100.28948 64.349609 99.617188 C 64.571344 99.033978 64.907511 98.762188 65.359375 98.798828 z M 164.44727 98.855469 C 165.00413 98.934969 165.09688 99.154259 165.08398 100.34961 C 165.06598 102.01535 163.67844 104.30324 160.93945 107.18164 C 158.61889 109.62031 157.57664 109.66182 157.82031 107.30469 C 158.04479 105.13329 163.11744 98.665619 164.44727 98.855469 z M 63.511719 103.5293 C 63.92996 103.5849 64.491703 104.02372 65.242188 104.85156 C 67.351585 107.17837 69.628906 110.56475 69.628906 111.375 C 69.628906 112.42247 69.013298 112.28238 66.955078 110.76172 C 63.565478 108.2574 62.198898 106.27361 62.642578 104.50586 C 62.819408 103.8013 63.093478 103.47369 63.511719 103.5293 z M 166.07812 104.44727 C 167.10808 104.53517 167.48527 106.13978 166.60156 107.4668 C 165.81125 108.65356 163.37119 111.14883 162.03516 112.13672 C 161.37135 112.62756 160.57073 113.0293 160.25586 113.0293 C 159.38418 113.0293 159.52856 111.53861 160.55664 109.91797 C 161.71455 108.09265 164.82628 104.75263 165.59766 104.50781 C 165.76965 104.45321 165.93099 104.43467 166.07812 104.44727 z M 77.017578 105.00586 C 77.721318 105.08856 81.607249 107.77667 81.921875 108.39844 C 82.165605 108.88009 82.3097 110.53612 82.3125 112.89648 C 82.3157 115.55348 82.465758 117.07352 82.832031 118.1582 C 84.39208 122.7781 88.787783 126.19438 93.142578 126.17188 C 96.49125 126.15457 98.896399 124.42729 105.19922 117.52344 L 109.33594 112.99414 L 115.61133 113.08984 C 122.95493 113.2006 122.56002 113.04624 125.4668 116.92383 C 130.33884 123.42303 136.08609 127.03452 139.94336 126.01758 C 141.90199 125.50121 143.55908 124.43585 145.34375 122.54883 C 148.36732 119.35185 149.53529 116.04402 149.4043 111.03906 L 149.31641 107.72266 L 150.32812 106.81836 C 151.99716 105.32212 152.42522 105.54989 152.82812 108.1543 C 153.34608 111.50196 153.80469 116.53822 153.80469 118.88672 C 153.80469 122.89722 152.36448 126.1716 149.08594 129.62305 C 145.22848 133.68394 139.36331 137.72379 131.88477 141.47266 C 127.20704 143.81754 123.52363 145.07662 120.08008 145.50586 C 117.61973 145.81255 111.15315 145.88297 109.08594 145.625 C 103.16984 144.88671 97.77492 142.58314 89.279297 137.16992 C 77.374856 129.58467 75.176196 126.1859 75.597656 116.01758 C 75.777286 111.68365 76.644188 104.96196 77.017578 105.00586 z M 61.253906 108.83594 C 62.176613 108.82244 64.127297 110.1844 66.775391 112.78906 C 68.813431 114.79368 69.334766 115.82366 68.697266 116.5918 C 68.165216 117.23288 68.074513 117.2076 65.970703 115.80273 C 63.821483 114.36754 61.051091 111.47348 60.775391 110.375 C 60.517582 109.34781 60.700281 108.84402 61.253906 108.83594 z M 168.30859 108.875 C 168.75707 108.8539 168.96875 109.20773 168.96875 109.92188 C 168.96875 111.4792 165.66588 115.11349 163.02344 116.46484 C 161.63792 117.1734 160.96187 117.2093 160.72266 116.58594 C 160.46791 115.92206 161.3191 114.75625 163.95703 112.15234 C 166.15283 109.98487 167.56113 108.91012 168.30859 108.875 z M 59.345703 112.87109 C 60.319178 112.98514 62.295263 114.36892 64.564453 116.55859 C 66.677843 118.59792 66.880663 118.90066 66.789062 119.85938 C 66.656483 121.24661 66.100331 121.31145 64.269531 120.15039 C 60.352561 117.66633 57.343665 113.53493 58.992188 112.90234 C 59.088327 112.86544 59.206635 112.85469 59.345703 112.87109 z M 169.76758 113.70117 C 170.2105 113.66707 170.50006 113.86853 170.61719 114.31641 C 171.05093 115.97506 168.8986 118.46447 165.58203 120.13867 C 163.55185 121.1635 163.2243 121.23745 162.92188 120.74805 C 162.51136 120.08384 163.11326 118.99299 164.85742 117.23438 C 167.08116 114.99223 168.79315 113.77627 169.76758 113.70117 z "
           transform="translate(3.7499999,4.5)"
           id="path5120"
           clip-path="url(#clipPath5656)" />
        <path
           inkscape:connector-curvature="0"
           id="path5130"
           d="m 120.91336,105.82002 c -0.30164,-0.48807 0.77032,-1.59777 1.54343,-1.59777 0.98957,0 1.34608,0.87924 0.58281,1.43735 -0.63849,0.46688 -1.87899,0.56047 -2.12624,0.16042 z"
           style="opacity:1;fill:#000000;fill-opacity:1;fill-rule:nonzero;stroke:none;stroke-width:0.30946726;stroke-opacity:1"
           clip-path="url(#clipPath5644)" />
        <path
           inkscape:connector-curvature="0"
           id="path5132"
           d="m 129.31518,106.05842 c -0.62175,-0.3669 -0.7173,-1.53666 -0.17021,-2.08374 0.57421,-0.57421 1.40163,-0.44092 1.928,0.31058 0.40702,0.5811 0.41559,0.77561 0.0579,1.31524 -0.49752,0.75069 -1.07348,0.89594 -1.81573,0.45792 z"
           style="opacity:1;fill:#000000;fill-opacity:1;fill-rule:nonzero;stroke:none;stroke-width:0.30946726;stroke-opacity:1"
           clip-path="url(#clipPath5640)" />
        <path
           inkscape:connector-curvature="0"
           id="path5134"
           d="m 115.53791,137.60917 c -1.52918,-0.75692 -4.40528,-3.80495 -5.30361,-5.62064 -0.80775,-1.63262 -0.49157,-2.21148 1.77727,-3.25382 2.35063,-1.07992 7.91829,-1.35749 10.75521,-0.53619 1.56995,0.4545 4.7707,2.42378 4.76811,2.93361 -0.003,0.56736 -5.46409,5.93719 -6.59501,6.48466 -1.71293,0.82921 -3.71709,0.82639 -5.40197,-0.008 z"
           style="opacity:1;fill:#000000;fill-opacity:1;fill-rule:nonzero;stroke:none;stroke-width:0.30946726;stroke-opacity:1"
           clip-path="url(#clipPath5636)" />
        <path
           inkscape:connector-curvature="0"
           id="path5140"
           d="m 156.36173,101.08257 c -2.2443,-0.64598 -5.02615,-4.443607 -4.57418,-6.244407 0.53794,-2.14332 3.57743,-5.16087 5.1984,-5.16087 1.44392,0 5.41796,3.21188 6.14462,4.96618 0.41558,1.00329 -0.0328,2.07289 -1.63658,3.90372 -0.90778,1.03631 -3.50388,2.930167 -3.92314,2.861937 -0.0943,-0.0153 -0.63844,-0.1623 -1.20912,-0.32656 z m 2.67463,-1.159927 c 1.45306,-0.74161 2.05654,-1.43442 2.52777,-2.90192 1.15515,-3.59736 -1.77258,-6.71949 -5.3951,-5.75332 -1.50092,0.40031 -3.24349,2.15072 -3.29123,3.30603 -0.099,2.39552 0.3371,3.26294 2.4524,4.87809 1.5913,1.215047 2.1175,1.281937 3.70616,0.47112 z"
           style="opacity:1;fill:#000000;fill-opacity:1;fill-rule:nonzero;stroke:none;stroke-width:0.30946726;stroke-opacity:1"
           clip-path="url(#clipPath5628)" />
        <rect
           style="opacity:1;fill:#000000;fill-opacity:1;fill-rule:nonzero;stroke:none;stroke-width:0.8631106;stroke-opacity:1"
           id="rect5542"
           width="25.82597"
           height="1.5648618"
           x="138.3792"
           y="98.00737"
           transform="matrix(0.94567725,-0.32510696,0.27779364,0.96064077,0,0)"
           clip-path="url(#clipPath5624)" />
      </g>
      <g
         transform="matrix(-1,0,0,1,138.35995,5.941406)"
         id="g5751">
        <path
           transform="translate(-94.015629,-1.441406)"
           inkscape:connector-curvature="0"
           style="opacity:1;fill:#000000;fill-opacity:1;fill-rule:nonzero;stroke:none;stroke-width:0.30946726;stroke-opacity:1"
           d="m 50.099609,21.890625 0.1875,4.642578 c 0.67394,16.615458 5.7442,30.502464 16.38086,44.873047 l 3.205078,4.332031 -1.96875,3.869141 c -2.43995,4.791263 -3.226563,7.037267 -3.226563,9.216797 0,3.45347 -2.631483,13.021951 -5.720703,20.800781 -1.78906,4.50495 -1.975227,5.68794 -1.148437,7.30859 1.34808,2.64245 6.168066,5.8588 8.441406,5.63282 1.29082,-0.12831 2.122806,-1.58638 4.566406,-8.00977 2.26515,-5.95431 2.771259,-6.97679 3.230469,-6.51758 0.24969,0.24969 0.187524,1.59213 -0.228516,4.97461 -1.01433,8.24662 -0.01371,13.32429 3.408203,17.29102 2.749443,3.18719 10.459492,8.60908 17.275391,12.14843 7.433707,3.86019 9.752537,4.60724 15.203127,4.9004 6.97955,0.37539 12.8298,-0.0682 16.35742,-1.24024 2.77931,-0.9234 10.06322,-4.5986 13.88867,-7.00781 5.11377,-3.22056 6.95035,-4.63225 10.17188,-7.81836 5.08526,-5.02934 5.81711,-7.42347 5.25781,-17.20313 -0.34106,-5.96358 -0.19479,-7.80016 0.51367,-6.44336 0.16974,0.32507 1.10598,2.68127 2.08008,5.23438 3.22369,8.44923 4.07087,9.75383 6.31641,9.74023 3.42675,-0.0208 8.08203,-4.50353 8.08203,-7.7832 0,-0.60499 -0.49835,-2.17164 -1.10938,-3.49414 -2.42601,-5.25078 -6.15224,-17.745004 -6.61328,-22.171874 -0.25491,-2.44762 -0.46976,-3.050235 -2.63086,-7.365235 -1.32655,-2.648684 -2.25533,-4.860494 -2.12891,-5.070312 0.12338,-0.204735 1.67893,-2.176804 3.45899,-4.38086 6.84792,-8.479004 11.00959,-16.155297 14.24805,-26.285156 1.11513,-3.488117 1.95122,-6.846888 2.54492,-10.251953 l -2.33985,0.787109 c -0.66916,2.92035 -1.65088,6.614365 -2.52929,9.25586 -3.95465,11.892157 -9.0984,20.426322 -17.28711,28.68164 -2.96021,2.984283 -4.03399,3.864406 -5.26563,4.31836 -1.01488,0.37406 -2.13505,1.163057 -3.2539,2.291015 -0.93822,0.945859 -2.67782,2.356799 -3.86719,3.136719 -2.50264,1.64112 -3.24609,1.966509 -3.24609,1.417969 0,-0.53191 0.73969,-1.570425 2.79492,-3.927734 5.93367,-6.805836 8.63801,-12.501545 12.19531,-25.685547 1.10884,-4.109559 1.0576,-5.355103 -0.29102,-7.251953 -1.79601,-2.526128 -1.28724,-4.235576 1.70508,-5.746094 0.15034,-0.07589 0.27553,-0.146463 0.41016,-0.21875 l -4.83008,1.625 c -0.18148,0.641538 -0.21719,1.356892 -0.13086,2.193359 0.0904,0.875669 0.41354,2.060488 0.71875,2.632813 1.08146,2.027888 0.48817,5.821441 -2.22461,14.21289 l -1.09961,3.398438 -0.89648,-0.53125 c -0.49353,-0.291537 -2.67997,-2.190183 -4.85742,-4.220703 -6.92767,-6.460182 -12.51565,-10.119067 -19.27735,-12.619141 -4.2798,-1.582413 -5.63863,-2.389978 -6.60937,-3.927734 -0.80756,-1.279248 -3.07919,-2.676448 -4.89844,-3.013672 -2.11314,-0.391702 -4.65063,1.013764 -6.11719,3.386718 -0.69216,1.119926 -3.15669,2.553977 -5.89453,3.431641 -5.788059,1.855472 -12.856737,6.526142 -20.517577,13.556641 -1.838118,1.686875 -3.400656,3.007587 -3.472656,2.935547 -0.43068,-0.430682 -2.691051,-9.774555 -2.837891,-11.730469 -0.15284,-2.035877 -0.0625,-2.684867 0.675782,-4.857422 1.276206,-3.755539 0.818194,-5.170318 -2.322266,-7.185547 -1.54153,-0.989194 -3.089844,-3.06488 -3.089844,-4.140625 0,-0.97947 -0.872566,-2.228464 -1.910156,-2.734375 -0.56633,-0.276128 -1.829731,-0.87008 -2.806641,-1.320312 -0.97691,-0.450231 -2.36859,-1.382169 -3.09375,-2.070313 -1.7581,-1.668348 -2.642645,-1.994365 -6.109375,-2.255859 -2.89074,-0.218048 -4.405657,-0.685537 -4.748047,-1.466797 -0.096,-0.219054 -0.747565,-1.720924 -1.447265,-3.337891 z m 2.509766,10.292969 3.822266,0.126953 c 4.34914,0.14479 5.060932,0.427693 6.070312,2.40625 0.68163,1.336101 1.108656,1.553598 2.972656,1.517578 1.49214,-0.02883 2.941477,0.65006 3.628907,1.699219 0.28434,0.43395 0.53439,1.585394 0.58789,2.710937 0.09025,1.89882 0.120885,1.964217 1.021485,2.148438 1.23763,0.253159 2.289645,0.818934 3.353515,1.804687 1.54708,1.433483 1.566464,1.669893 0.371094,4.388672 -0.64423,1.46524 -1.095703,2.988443 -1.095703,3.703125 0,1.970121 2.358179,10.630681 4.037109,14.828125 2.58348,6.458885 5.816312,11.674196 10.328125,16.664063 1.120875,1.23963 2.03711,2.388164 2.03711,2.552734 0,0.16457 -0.109965,0.298828 -0.244141,0.298828 -0.386035,0 -5.963433,-3.461946 -7.658203,-4.753906 C 74.64632,76.794028 65.824699,67.107102 62.324219,60.847656 58.331329,53.707713 54.427602,42.390926 52.794922,33.226562 Z m 62.005855,11.957031 c 1.49792,-0.03584 2.814,0.580589 3.71875,1.814453 0.59488,0.811324 0.5983,0.881521 0.0879,1.392578 -0.42706,0.427548 -1.15427,0.55183 -3.54297,0.59961 -3.30315,0.06607 -4.33214,-0.12486 -4.81641,-0.892578 -0.41341,-0.655389 0.12286,-1.327542 1.70898,-2.136719 0.97934,-0.49962 1.94501,-0.755841 2.84375,-0.777344 z m 5.21094,5.603516 c 0.32771,0.0044 0.52797,0.024 0.5625,0.0625 0.12118,0.135128 1.36944,3.310133 2.77344,7.054687 2.53491,6.760733 3.37268,8.722393 3.39648,7.955078 0.0111,-0.358487 -1.48731,-4.551226 -3.86132,-10.802734 -0.90277,-2.377278 -0.86216,-3.1875 0.1582,-3.1875 1.61887,0 5.60674,4.920817 10.00195,12.33789 1.54989,2.615495 2.87,4.599031 2.9336,4.408204 0.16558,-0.496732 -2.30962,-4.691407 -6.04688,-10.246094 -2.77989,-4.131741 -3.14088,-4.810428 -2.60742,-4.892578 0.99164,-0.152709 4.18985,1.642932 6.55859,3.68164 4.59389,3.953838 9.9192,10.894836 12.52539,16.328125 l 1.23438,2.576172 -2.67383,2.585938 c -1.69333,1.637184 -3.0488,2.682586 -3.69336,2.849609 -0.75536,0.195732 -1.08039,0.492315 -1.25586,1.148438 -0.32715,1.223278 -1.81516,2.677565 -4.90625,4.791015 -3.54521,2.42394 -8.04961,4.836958 -8.03516,4.304688 0.0179,-0.65743 2.89021,-5.942317 3.29688,-6.066407 0.2018,-0.06156 0.59181,0.279213 0.86719,0.757813 0.48481,0.84255 0.49509,0.792747 0.33008,-1.564453 -0.17455,-2.493538 -1.26959,-7.900403 -2.40235,-11.855469 -0.5053,-1.764282 -0.77861,-2.256614 -1.32812,-2.394531 -0.38035,-0.09546 -1.43463,-0.682612 -2.3418,-1.306641 -3.5533,-2.444234 -8.92234,-4.099294 -12.08594,-3.724609 -1.89942,0.224958 -5.10636,1.571358 -8.16406,3.427734 -1.31668,0.799379 -2.45043,1.395262 -2.51953,1.326172 -0.15928,-0.159276 1.48438,-4.915382 3.74414,-10.835937 0.96312,-2.523343 1.69841,-4.748476 1.63281,-4.945313 -0.28267,-0.847996 -5.71602,13.953748 -7.51562,20.47461 -1.864803,6.757158 -1.775292,8.544165 0.64453,12.765624 1.55512,2.71297 1.9819,3.990235 1.33203,3.990235 -1.25497,0 -3.662063,-2.927771 -3.664063,-4.457031 v -0.958985 l -0.613281,1.00586 c -0.66939,1.09788 -0.941336,1.187224 -1.958985,0.646484 -1.31406,-0.69826 -6.416218,-5.033034 -6.298828,-5.351563 0.06549,-0.177683 0.562732,-1.818773 1.103516,-3.646484 3.451712,-11.665886 12.156501,-25.905992 16.589841,-27.138672 1.4665,-0.407756 9.99317,-1.134668 12.28711,-1.103515 z m -17.3457,2.425781 c 0.28485,-0.03115 0.49698,0.0068 0.61328,0.123047 0.18753,0.187537 -0.90406,2.092144 -2.99219,5.216797 -4.192874,6.274292 -7.06559,12.090265 -9.177732,18.585937 -0.904331,2.781173 -1.733208,5.056022 -1.84375,5.056641 -0.368315,0.0022 -6.559443,-7.662689 -7.285156,-9.019532 -0.920125,-1.72028 -0.94283,-3.755329 -0.05664,-5.208984 1.390663,-2.281241 10.870097,-10.527344 12.101563,-10.527344 0.596721,0 0.105318,0.92892 -1.40625,2.66211 -4.059923,4.65518 -7.846755,9.614179 -7.560547,9.90039 0.08652,0.08652 1.716958,-1.812568 3.623047,-4.220703 4.232163,-5.346879 7.606593,-8.918951 10.068359,-10.660156 1.551956,-1.097645 3.061466,-1.814751 3.916016,-1.908203 z m 35.66797,6.392578 c 1.10445,0 8.61759,7.305475 10.39453,10.107422 0.51061,0.805154 0.92773,1.777453 0.92773,2.160156 0,0.382702 -0.32701,1.078155 -0.72851,1.544922 l -0.73047,0.847656 -0.79297,-0.791015 c -0.43578,-0.43578 -1.16997,-1.541947 -1.63281,-2.457032 -1.14103,-2.255936 -2.95436,-4.912824 -5.25,-7.697265 -2.31893,-2.812689 -2.84972,-3.714844 -2.1875,-3.714844 z m -22.40235,7.595703 h 0.002 0.002 0.002 0.002 0.002 0.002 0.002 0.002 c 5.76262,0.262031 10.93043,4.318997 12.51367,10.167969 0.7216,2.665798 0.53421,6.538871 -0.42187,8.68164 -1.64458,3.685831 -5.12529,6.940305 -8.7793,8.208985 -1.8859,0.65479 -8.30632,1.262433 -8.57031,0.828125 -0.003,-4.88e-4 -0.005,0.0027 -0.008,0.002 -0.0209,-0.0068 -0.0377,-0.01965 -0.0527,-0.03516 -0.0123,-0.01295 -0.0211,-0.02842 -0.0312,-0.04297 -0.008,-0.0113 -0.0132,-0.02464 -0.0195,-0.03711 -0.005,-0.0039 -0.0104,-0.0076 -0.0156,-0.01172 -0.047,-0.03726 -0.0948,-0.0761 -0.13672,-0.119141 -0.0344,-0.03619 -0.0632,-0.07363 -0.0879,-0.117187 -9.8e-4,-0.0018 -7.9e-4,-0.0041 -0.002,-0.0059 -0.0199,-0.01655 -0.0398,-0.03321 -0.0566,-0.05273 -0.0282,-0.03071 -0.0547,-0.06224 -0.082,-0.09375 -0.0295,-0.03454 -0.0601,-0.06893 -0.0918,-0.101562 -0.0365,-0.03974 -0.0726,-0.07965 -0.10937,-0.119141 -0.0405,-0.04457 -0.0799,-0.08904 -0.11914,-0.134766 -0.0476,-0.05654 -0.0943,-0.113712 -0.14453,-0.167969 -0.0529,-0.05602 -0.10775,-0.109921 -0.16797,-0.158203 -0.0613,-0.04998 -0.12515,-0.09853 -0.18946,-0.144531 -0.0276,-0.02022 -0.0543,-0.04178 -0.0781,-0.06641 -0.19734,-0.05144 -0.45894,-0.160747 -0.87891,-0.375 -3.28104,-1.67386 -6.35509,-6.090016 -7.05859,-10.134766 -1.306052,-7.509034 4.15891,-14.680404 12.07422,-15.84375 0.83873,-0.123272 1.67481,-0.164386 2.49804,-0.126953 z M 72.066406,77.849609 c 0.28593,-5.16e-4 0.530563,0.2123 0.789063,0.634766 0.2681,0.438159 0.166917,0.686482 -0.535157,1.296875 -1.770696,1.5395 -2.944352,0.360375 -1.289062,-1.294922 0.42369,-0.423701 0.749226,-0.636202 1.035156,-0.636719 z m 85.468754,1.121094 c 0.55094,0.03797 1.24391,0.536122 1.63281,1.332031 0.77717,1.590526 0.57915,1.850509 -0.90625,1.183594 -1.32213,-0.593605 -1.78199,-1.234486 -1.46875,-2.050781 0.132,-0.343988 0.41162,-0.487628 0.74219,-0.464844 z m -81.339848,0.949219 c 0.29194,-0.0017 1.003722,0.412155 1.582032,0.919922 1.09632,0.96258 4.427588,5.791155 4.171875,6.046875 -0.08069,0.08068 -1.246251,-0.480414 -2.589844,-1.246094 -1.3436,-0.76569 -2.796606,-1.392578 -3.228516,-1.392578 -0.43192,0 -1.499053,0.481099 -2.371093,1.068359 -3.99405,2.68976 -3.70471,7.362752 0.59375,9.613282 l 1.691406,0.884765 1.427734,-0.544922 c 2.48312,-0.94832 4.535157,-3.965432 4.535156,-6.669922 0,-0.35014 0.10982,-0.636718 0.244141,-0.636718 0.134324,0 1.23954,1.741603 2.457031,3.871093 l 2.214844,3.873047 -1.607422,1.179688 c -0.883745,0.649 -2.720375,1.951161 -4.082031,2.894531 -3.869552,2.68089 -3.527068,2.63066 -5.335937,0.77539 -3.05098,-3.129229 -10.292969,-12.655292 -10.292969,-13.539062 0,-1.29149 8.647054,-7.086596 10.589843,-7.097656 z m 76.847658,0.925781 c 3.03391,0 10.35547,5.234737 10.35547,7.404297 0,1.27653 -4.57609,7.402303 -9.5,12.7207 -0.94007,1.01539 -1.88366,1.84571 -2.09766,1.84571 -0.80778,0 -8.82317,-5.839131 -8.82617,-6.429691 -0.004,-0.91489 4.56263,-9.003288 7.50977,-13.298828 1.38531,-2.019152 1.6417,-2.242188 2.55859,-2.242188 z m -76.376954,5.015625 c 0.604781,0.0198 1.200599,0.135856 1.740234,0.361328 3.292902,1.37587 3.14309,5.364852 -0.289062,7.669922 -1.78371,1.19795 -2.582674,1.311374 -3.777344,0.53711 -2.16095,-1.400521 -3.125517,-4.448373 -2.060547,-6.507813 0.679567,-1.314143 2.572373,-2.119951 4.386719,-2.060547 z m 7.865234,1.365234 c 0.191329,0.02499 0.504587,0.169919 1.035156,0.449219 0.680828,0.35841 1.655039,1.057758 2.164063,1.554688 0.828358,0.8087 0.925234,1.10438 0.927734,2.80664 0.0034,2.25752 -0.400773,2.56279 -1.486328,1.125 -1.229077,-1.62789 -3.056315,-5.138916 -2.945313,-5.660156 0.04352,-0.20431 0.113359,-0.300383 0.304688,-0.275391 z m 60.93359,0.150391 c 0.0849,0.0072 0.15444,0.03334 0.20118,0.08008 0.26316,0.26315 -1.82425,4.310734 -3.17188,6.152344 -0.59162,0.80848 -1.21231,1.470703 -1.38086,1.470703 -0.91624,0 0.22368,-4.121942 1.66211,-6.007812 0.67845,-0.889499 2.09537,-1.745719 2.68945,-1.695313 z m -55.101559,3.074219 c 0.07991,-0.0051 0.169898,0.0014 0.271485,0.01758 0.487617,0.07743 1.239813,0.396176 2.398437,0.916016 1.159821,0.52038 3.644265,1.445287 5.521485,2.054687 1.877212,0.6094 3.545342,1.226267 3.707032,1.373047 0.30434,0.27622 -10.013793,0.316076 -11.125001,0.04297 -1.148708,-0.28236 -1.392578,-0.736053 -1.392578,-2.597657 0,-1.206468 0.05978,-1.771016 0.61914,-1.80664 z m 49.132809,0.605469 c 0.98,0 1.15544,0.688945 0.65235,2.572265 -0.37666,1.41003 -0.56138,1.650351 -1.50977,1.97461 -0.68144,0.23287 -2.91116,0.357084 -6.0332,0.333984 -5.77187,-0.0427 -7.58203,-0.17277 -7.58203,-0.541016 0,-0.48962 12.83993,-4.339843 14.47265,-4.339843 z m -72.814449,1.857421 c 1.63545,10e-7 7.738867,8.263508 7.179687,9.720708 -0.27481,0.71616 -0.857618,0.60879 -2.236328,-0.41211 -1.82976,-1.3549 -4.692327,-5.02894 -5.654297,-7.255863 -0.508,-1.17599 -0.204532,-2.052734 0.710938,-2.052735 z m 96.439449,0.634766 c 0.38393,0.04384 0.65309,0.295793 0.76758,0.751953 0.28482,1.1348 -1.08744,3.254176 -4.05273,6.259769 -2.34775,2.3797 -3.13351,2.88602 -3.66016,2.35937 -0.35232,-0.35232 -0.22755,-1.32791 0.30078,-2.36133 0.76461,-1.495626 4.29331,-5.927095 5.18555,-6.511715 0.57588,-0.377335 1.07506,-0.541883 1.45898,-0.498047 z m -52.59179,0.15625 c 9e-5,0.0013 -2.4e-4,0.0026 0,0.0039 l 0.002,-0.002 z M 86.929688,96.9375 h 27.283202 27.2832 l 3.44727,2.511719 c 4.04435,2.949521 5.45703,4.225971 5.45703,4.927731 0,2.09043 -9.02084,5.07184 -20.15234,6.66016 -2.51302,0.35858 -6.35872,0.52704 -13.42578,0.58984 -10.65073,0.0947 -11.12278,0.0771 -16.66993,-0.625 -8.518139,-1.07809 -20.864474,-4.9752 -21.179684,-6.68554 -0.14229,-0.77203 1.591885,-2.55956 4.94336,-5.09766 z m -21.570313,1.861328 c 0.994101,0.0806 2.542388,1.659232 4.636719,4.730472 1.71131,2.50949 2.175307,3.71465 1.804687,4.68945 -0.16488,0.43366 -0.476389,0.78813 -0.693359,0.78906 -0.70956,0.003 -5.427242,-5.20251 -6.263672,-6.91211 -0.65979,-1.34857 -0.749751,-1.80622 -0.494141,-2.478512 0.221735,-0.58321 0.557902,-0.855 1.009766,-0.81836 z m 99.087895,0.05664 c 0.55686,0.0795 0.64961,0.29879 0.63671,1.494142 -0.018,1.66574 -1.40554,3.95363 -4.14453,6.83203 -2.32056,2.43867 -3.36281,2.48018 -3.11914,0.12305 0.22448,-2.1714 5.29713,-8.639072 6.62696,-8.449222 z M 63.511719,103.5293 c 0.418241,0.0556 0.979984,0.49442 1.730469,1.32226 2.109397,2.32681 4.386718,5.71319 4.386718,6.52344 0,1.04747 -0.615608,0.90738 -2.673828,-0.61328 -3.3896,-2.50432 -4.75618,-4.48811 -4.3125,-6.25586 0.17683,-0.70456 0.4509,-1.03217 0.869141,-0.97656 z m 102.566401,0.91797 c 1.02996,0.0879 1.40715,1.69251 0.52344,3.01953 -0.79031,1.18676 -3.23037,3.68203 -4.5664,4.66992 -0.66381,0.49084 -1.46443,0.89258 -1.7793,0.89258 -0.87168,0 -0.7273,-1.49069 0.30078,-3.11133 1.15791,-1.82532 4.26964,-5.16534 5.04102,-5.41016 0.17199,-0.0546 0.33333,-0.0731 0.48046,-0.0605 z m -89.060542,0.55859 c 0.70374,0.0827 4.589671,2.77081 4.904297,3.39258 0.24373,0.48165 0.387825,2.13768 0.390625,4.49804 0.0032,2.657 0.153258,4.17704 0.519531,5.26172 1.560049,4.6199 5.955752,8.03618 10.310547,8.01368 3.348672,-0.0173 5.753821,-1.74459 12.056642,-8.64844 l 4.13672,-4.5293 6.27539,0.0957 c 7.3436,0.11076 6.94869,-0.0436 9.85547,3.83399 4.87204,6.4992 10.61929,10.11069 14.47656,9.09375 1.95863,-0.51637 3.61572,-1.58173 5.40039,-3.46875 3.02357,-3.19698 4.19154,-6.50481 4.06055,-11.50977 l -0.0879,-3.3164 1.01171,-0.9043 c 1.66904,-1.49624 2.0971,-1.26847 2.5,1.33594 0.51796,3.34766 0.97657,8.38392 0.97657,10.73242 0,4.0105 -1.44021,7.28488 -4.71875,10.73633 -3.85746,4.06089 -9.72263,8.10074 -17.20117,11.84961 -4.67773,2.34488 -8.36114,3.60396 -11.80469,4.0332 -2.46035,0.30669 -8.92693,0.37711 -10.99414,0.11914 -5.9161,-0.73829 -11.31102,-3.04186 -19.806643,-8.45508 -11.904441,-7.58525 -14.103101,-10.98402 -13.681641,-21.15234 0.17963,-4.33393 1.046532,-11.05562 1.419922,-11.01172 z m -15.763672,3.83008 c 0.922707,-0.0135 2.873391,1.34846 5.521485,3.95312 2.03804,2.00462 2.559375,3.0346 1.921875,3.80274 -0.53205,0.64108 -0.622753,0.6158 -2.726563,-0.78907 -2.14922,-1.43519 -4.919612,-4.32925 -5.195312,-5.42773 -0.257809,-1.02719 -0.07511,-1.53098 0.478515,-1.53906 z m 107.054684,0.0391 c 0.44848,-0.0211 0.66016,0.33273 0.66016,1.04688 0,1.55732 -3.30287,5.19161 -5.94531,6.54296 -1.38552,0.70856 -2.06157,0.74446 -2.30078,0.1211 -0.25475,-0.66388 0.59644,-1.82969 3.23437,-4.4336 2.1958,-2.16747 3.6041,-3.24222 4.35156,-3.27734 z m -108.962887,3.99609 c 0.973475,0.11405 2.94956,1.49783 5.21875,3.6875 2.11339,2.03933 2.31621,2.34207 2.224609,3.30079 -0.132579,1.38723 -0.688731,1.45207 -2.519531,0.29101 -3.91697,-2.48406 -6.925866,-6.61546 -5.277343,-7.24805 0.09614,-0.0369 0.214447,-0.0476 0.353515,-0.0312 z m 110.421877,0.83008 c 0.44292,-0.0341 0.73248,0.16736 0.84961,0.61524 0.43374,1.65865 -1.71859,4.14806 -5.03516,5.82226 -2.03018,1.02483 -2.35773,1.09878 -2.66015,0.60938 -0.41052,-0.66421 0.19138,-1.75506 1.93554,-3.51367 2.22374,-2.24215 3.93573,-3.45811 4.91016,-3.53321 z"
           id="path5120-7"
           clip-path="url(#clipPath5656-4)" />
        <path
           transform="translate(-97.765629,-5.941406)"
           inkscape:connector-curvature="0"
           id="path5130-9"
           d="m 120.91336,105.82002 c -0.30164,-0.48807 0.77032,-1.59777 1.54343,-1.59777 0.98957,0 1.34608,0.87924 0.58281,1.43735 -0.63849,0.46688 -1.87899,0.56047 -2.12624,0.16042 z"
           style="opacity:1;fill:#000000;fill-opacity:1;fill-rule:nonzero;stroke:none;stroke-width:0.30946726;stroke-opacity:1"
           clip-path="url(#clipPath5644-1)" />
        <path
           transform="translate(-97.765629,-5.941406)"
           inkscape:connector-curvature="0"
           id="path5132-2"
           d="m 129.31518,106.05842 c -0.62175,-0.3669 -0.7173,-1.53666 -0.17021,-2.08374 0.57421,-0.57421 1.40163,-0.44092 1.928,0.31058 0.40702,0.5811 0.41559,0.77561 0.0579,1.31524 -0.49752,0.75069 -1.07348,0.89594 -1.81573,0.45792 z"
           style="opacity:1;fill:#000000;fill-opacity:1;fill-rule:nonzero;stroke:none;stroke-width:0.30946726;stroke-opacity:1"
           clip-path="url(#clipPath5640-2)" />
        <path
           transform="translate(-97.765629,-5.941406)"
           inkscape:connector-curvature="0"
           id="path5134-3"
           d="m 115.53791,137.60917 c -1.52918,-0.75692 -4.40528,-3.80495 -5.30361,-5.62064 -0.80775,-1.63262 -0.49157,-2.21148 1.77727,-3.25382 2.35063,-1.07992 7.91829,-1.35749 10.75521,-0.53619 1.56995,0.4545 4.7707,2.42378 4.76811,2.93361 -0.003,0.56736 -5.46409,5.93719 -6.59501,6.48466 -1.71293,0.82921 -3.71709,0.82639 -5.40197,-0.008 z"
           style="opacity:1;fill:#000000;fill-opacity:1;fill-rule:nonzero;stroke:none;stroke-width:0.30946726;stroke-opacity:1"
           clip-path="url(#clipPath5636-5)" />
        <path
           transform="translate(-97.765629,-5.941406)"
           inkscape:connector-curvature="0"
           id="path5140-2"
           d="m 156.36173,101.08257 c -2.2443,-0.64598 -5.02615,-4.443607 -4.57418,-6.244407 0.53794,-2.14332 3.57743,-5.16087 5.1984,-5.16087 1.44392,0 5.41796,3.21188 6.14462,4.96618 0.41558,1.00329 -0.0328,2.07289 -1.63658,3.90372 -0.90778,1.03631 -3.50388,2.930167 -3.92314,2.861937 -0.0943,-0.0153 -0.63844,-0.1623 -1.20912,-0.32656 z m 2.67463,-1.159927 c 1.45306,-0.74161 2.05654,-1.43442 2.52777,-2.90192 1.15515,-3.59736 -1.77258,-6.71949 -5.3951,-5.75332 -1.50092,0.40031 -3.24349,2.15072 -3.29123,3.30603 -0.099,2.39552 0.3371,3.26294 2.4524,4.87809 1.5913,1.215047 2.1175,1.281937 3.70616,0.47112 z"
           style="opacity:1;fill:#000000;fill-opacity:1;fill-rule:nonzero;stroke:none;stroke-width:0.30946726;stroke-opacity:1"
           clip-path="url(#clipPath5628-0)" />
        <rect
           style="opacity:1;fill:#000000;fill-opacity:1;fill-rule:nonzero;stroke:none;stroke-width:0.8631106;stroke-opacity:1"
           id="rect5542-3"
           width="25.82597"
           height="1.5648618"
           x="138.3792"
           y="98.00737"
           transform="matrix(0.94567725,-0.32510696,0.27779364,0.96064077,-97.765629,-5.941406)"
           clip-path="url(#clipPath5624-2)" />
      </g>
    </g>
  </g>
</svg>
